<svg version="1.1" xmlns="http://www.w3.org/2000/svg" viewBox="0 0 596.0738617310766 403.7978692651634" width="1192.1477234621532" height="807.5957385303268">
  <!-- svg-source:excalidraw -->
  
  <defs>
    <style class="style-fonts">
      @font-face {
        font-family: "Virgil";
        src: url("https://excalidraw.com/Virgil.woff2");
      }
      @font-face {
        font-family: "Cascadia";
        src: url("https://excalidraw.com/Cascadia.woff2");
      }
      @font-face {
        font-family: "Assistant";
        src: url("https://excalidraw.com/Assistant-Regular.woff2");
      }
    </style>
    
  </defs>
  <g stroke-linecap="round"><g transform="translate(10.030426369840256 61.98828125) rotate(0 283.748046875 -0.896484375)"><path d="M0.94 0 C95.4 -0.55, 472.87 -2.54, 567.24 -2.73 M-0.03 -1.05 C94.21 -1.52, 471.79 -1.33, 566.16 -1.68" stroke="#1e1e1e" stroke-width="1" fill="none"></path></g></g><mask></mask><g stroke-linecap="round"><g transform="translate(169.02652011984026 15.9765625) rotate(0 1.33203125 188.044921875)"><path d="M0.82 0.44 C1.43 63.31, 2.98 313.61, 3.33 376.22 M-0.2 -0.38 C0.32 62.79, 2.31 314.85, 2.74 377.82" stroke="#1e1e1e" stroke-width="1" fill="none"></path></g></g><mask></mask><g stroke-linecap="round"><g transform="translate(15.256988869840256 115.02734375) rotate(0 283.68359375 1.244140625)"><path d="M-0.18 -0.77 C94.51 -0.4, 474.12 0.97, 568.56 1.32 M-1.73 1.44 C92.86 2, 473.14 2.14, 568.24 2.24" stroke="#1e1e1e" stroke-width="1" fill="none"></path></g></g><mask></mask><g stroke-linecap="round"><g transform="translate(22.311676369840256 177.90234375) rotate(0 281.73828125 -0.1328125)"><path d="M-0.73 0.01 C93.33 0.04, 469.82 -0.72, 563.76 -0.96 M1.09 -1.03 C95.07 -0.76, 469.49 0.16, 562.96 0.21" stroke="#1e1e1e" stroke-width="1" fill="none"></path></g></g><mask></mask><g stroke-linecap="round"><g transform="translate(25.042145119840256 245) rotate(0 278.029296875 -1.57421875)"><path d="M-1.19 -0.9 C91.54 -1.42, 463.98 -3.46, 556.83 -3.95 M0.39 1.25 C92.99 0.93, 463.85 -2.15, 556.29 -2.84" stroke="#1e1e1e" stroke-width="1" fill="none"></path></g></g><mask></mask><g stroke-linecap="round"><g transform="translate(22.764801369840256 305.3046875) rotate(0 280.578125 -3.279296875)"><path d="M0.51 -0.68 C93.91 -1.77, 467.44 -5.45, 560.94 -6.43 M-0.68 1.58 C92.5 0.69, 466.27 -3.68, 559.88 -4.82" stroke="#1e1e1e" stroke-width="1" fill="none"></path></g></g><mask></mask><g transform="translate(68.36245761984026 81.75) rotate(0 3.7939987182617188 17.5)"><text x="0" y="0" font-family="Virgil, Segoe UI Emoji" font-size="28px" fill="#1e1e1e" text-anchor="start" style="white-space: pre;" direction="ltr" dominant-baseline="text-before-edge">1</text></g><g transform="translate(65.26870761984026 138.5625) rotate(0 9.967994689941406 17.5)"><text x="0" y="0" font-family="Virgil, Segoe UI Emoji" font-size="28px" fill="#1e1e1e" text-anchor="start" style="white-space: pre;" direction="ltr" dominant-baseline="text-before-edge">2</text></g><g transform="translate(63.99136386984026 199.40625) rotate(0 9.53399658203125 17.5)"><text x="0" y="0" font-family="Virgil, Segoe UI Emoji" font-size="28px" fill="#1e1e1e" text-anchor="start" style="white-space: pre;" direction="ltr" dominant-baseline="text-before-edge">3</text></g><g transform="translate(61.38198886984026 266.0546875) rotate(0 8.959999084472656 17.5)"><text x="0" y="0" font-family="Virgil, Segoe UI Emoji" font-size="28px" fill="#1e1e1e" text-anchor="start" style="white-space: pre;" direction="ltr" dominant-baseline="text-before-edge">4</text></g><g transform="translate(63.65542636984026 329.97265625) rotate(0 9.477996826171875 17.5)"><text x="0" y="0" font-family="Virgil, Segoe UI Emoji" font-size="28px" fill="#1e1e1e" text-anchor="start" style="white-space: pre;" direction="ltr" dominant-baseline="text-before-edge">…</text></g><g transform="translate(65.44058261984026 11.921875) rotate(0 18.54999542236328 17.5)"><text x="0" y="0" font-family="Virgil, Segoe UI Emoji" font-size="28px" fill="#1e1e1e" text-anchor="start" style="white-space: pre;" direction="ltr" dominant-baseline="text-before-edge">ID</text></g><g transform="translate(311.94839511984026 10) rotate(0 34.873992919921875 17.5)"><text x="0" y="0" font-family="Virgil, Segoe UI Emoji" font-size="28px" fill="#1e1e1e" text-anchor="start" style="white-space: pre;" direction="ltr" dominant-baseline="text-before-edge">Name</text></g><g transform="translate(269.38589511984026 73.609375) rotate(0 95.47996520996094 17.5)"><text x="0" y="0" font-family="Virgil, Segoe UI Emoji" font-size="28px" fill="#1e1e1e" text-anchor="start" style="white-space: pre;" direction="ltr" dominant-baseline="text-before-edge">Emma Johnson</text></g><g transform="translate(268.26089511984026 134.9375) rotate(0 86.22595977783203 17.5)"><text x="0" y="0" font-family="Virgil, Segoe UI Emoji" font-size="28px" fill="#1e1e1e" text-anchor="start" style="white-space: pre;" direction="ltr" dominant-baseline="text-before-edge">Ethan Wilson</text></g><g transform="translate(266.59292636984026 195.46484375) rotate(0 81.8859634399414 17.5)"><text x="0" y="0" font-family="Virgil, Segoe UI Emoji" font-size="28px" fill="#1e1e1e" text-anchor="start" style="white-space: pre;" direction="ltr" dominant-baseline="text-before-edge">Olivia Davis</text></g><g transform="translate(272.25698886984026 257.8203125) rotate(0 71.48397064208984 17.5)"><text x="0" y="0" font-family="Virgil, Segoe UI Emoji" font-size="28px" fill="#1e1e1e" text-anchor="start" style="white-space: pre;" direction="ltr" dominant-baseline="text-before-edge">Liam Miller</text></g><g transform="translate(361.32730136984026 329.5234375) rotate(0 9.477996826171875 17.5)"><text x="0" y="0" font-family="Virgil, Segoe UI Emoji" font-size="28px" fill="#1e1e1e" text-anchor="start" style="white-space: pre;" direction="ltr" dominant-baseline="text-before-edge">…</text></g></svg>